<?xml version="1.0" encoding="UTF-8" standalone="no"?>
<svg
   xmlns:dc="http://purl.org/dc/elements/1.1/"
   xmlns:cc="http://creativecommons.org/ns#"
   xmlns:rdf="http://www.w3.org/1999/02/22-rdf-syntax-ns#"
   xmlns:svg="http://www.w3.org/2000/svg"
   xmlns="http://www.w3.org/2000/svg"
   xmlns:sodipodi="http://sodipodi.sourceforge.net/DTD/sodipodi-0.dtd"
   xmlns:inkscape="http://www.inkscape.org/namespaces/inkscape"
   inkscape:export-ydpi="18"
   inkscape:export-xdpi="18"
   inkscape:export-filename="/home/ian/src/temperatune/public/icon-48.png"
   width="256"
   height="256"
   viewBox="0 0 67.733332 67.733335"
   version="1.1"
   id="svg8"
   inkscape:version="1.0 (4035a4fb49, 2020-05-01)"
   sodipodi:docname="icon.svg">
  <defs
     id="defs2">
    <filter
       inkscape:collect="always"
       style="color-interpolation-filters:sRGB"
       id="filter1683"
       x="-0.00012241124"
       width="1.0002448"
       y="-5.5951938e-05"
       height="1.0001119">
      <feGaussianBlur
         inkscape:collect="always"
         stdDeviation="0.0012159845"
         id="feGaussianBlur1685" />
    </filter>
    <filter
       height="1.0001119"
       y="-5.5951939e-05"
       width="1.0002449"
       x="-0.00012241123"
       id="filter1683-3"
       style="color-interpolation-filters:sRGB"
       inkscape:collect="always">
      <feGaussianBlur
         id="feGaussianBlur1685-5"
         stdDeviation="0.0012159845"
         inkscape:collect="always" />
    </filter>
    <filter
       inkscape:collect="always"
       style="color-interpolation-filters:sRGB"
       id="filter1754"
       x="-6.8856319e-05"
       width="1.0001377"
       y="-3.1472964e-05"
       height="1.0000629">
      <feGaussianBlur
         inkscape:collect="always"
         stdDeviation="0.00068399127"
         id="feGaussianBlur1756" />
    </filter>
    <filter
       inkscape:collect="always"
       style="color-interpolation-filters:sRGB"
       id="filter1802"
       x="-9.3721135e-05"
       width="1.0001874"
       y="-4.2838216e-05"
       height="1.0000857">
      <feGaussianBlur
         inkscape:collect="always"
         stdDeviation="0.00093098845"
         id="feGaussianBlur1804" />
    </filter>
    <filter
       inkscape:collect="always"
       style="color-interpolation-filters:sRGB"
       id="filter1854"
       x="-0.0011954081"
       width="1.0023908"
       y="-0.0005464086"
       height="1.0010928">
      <feGaussianBlur
         inkscape:collect="always"
         stdDeviation="0.01365635"
         id="feGaussianBlur1856" />
    </filter>
    <filter
       inkscape:collect="always"
       style="color-interpolation-filters:sRGB"
       id="filter1862"
       x="-0.0011954286"
       width="1.0023909"
       y="-0.00054640432"
       height="1.0010928">
      <feGaussianBlur
         inkscape:collect="always"
         stdDeviation="0.013656243"
         id="feGaussianBlur1864" />
    </filter>
    <filter
       inkscape:collect="always"
       style="color-interpolation-filters:sRGB"
       id="filter1866"
       x="-0.0047817258"
       width="1.0095635"
       y="-0.0021856149"
       height="1.0043712">
      <feGaussianBlur
         inkscape:collect="always"
         stdDeviation="0.053395697"
         id="feGaussianBlur1868" />
    </filter>
    <filter
       inkscape:collect="always"
       style="color-interpolation-filters:sRGB"
       id="filter1870"
       x="-0.0047817258"
       width="1.0095635"
       y="-0.0021856149"
       height="1.0043712">
      <feGaussianBlur
         inkscape:collect="always"
         stdDeviation="0.053395697"
         id="feGaussianBlur1872" />
    </filter>
    <filter
       inkscape:collect="always"
       style="color-interpolation-filters:sRGB"
       id="filter1878"
       x="-0.010758897"
       width="1.0215178"
       y="-0.0049176305"
       height="1.0098353">
      <feGaussianBlur
         inkscape:collect="always"
         stdDeviation="0.11713655"
         id="feGaussianBlur1880" />
    </filter>
    <filter
       inkscape:collect="always"
       style="color-interpolation-filters:sRGB"
       id="filter1882"
       x="-0.010758897"
       width="1.0215178"
       y="-0.0049176305"
       height="1.0098353">
      <feGaussianBlur
         inkscape:collect="always"
         stdDeviation="0.11713655"
         id="feGaussianBlur1884" />
    </filter>
    <filter
       inkscape:collect="always"
       style="color-interpolation-filters:sRGB"
       id="filter1886"
       x="-0.019126954"
       width="1.0382539"
       y="-0.0087424489"
       height="1.0174849">
      <feGaussianBlur
         inkscape:collect="always"
         stdDeviation="0.20303625"
         id="feGaussianBlur1888" />
    </filter>
    <filter
       inkscape:collect="always"
       style="color-interpolation-filters:sRGB"
       id="filter1890"
       x="-0.019126954"
       width="1.0382539"
       y="-0.0087424489"
       height="1.0174849">
      <feGaussianBlur
         inkscape:collect="always"
         stdDeviation="0.20303625"
         id="feGaussianBlur1892" />
    </filter>
  </defs>
  <sodipodi:namedview
     id="base"
     pagecolor="#f7f7f7"
     bordercolor="#666666"
     borderopacity="1.0"
     inkscape:pageopacity="1"
     inkscape:pageshadow="2"
     inkscape:zoom="1.4142136"
     inkscape:cx="69.299626"
     inkscape:cy="148.54482"
     inkscape:document-units="px"
     inkscape:current-layer="layer1"
     inkscape:document-rotation="0"
     showgrid="false"
     units="px"
     inkscape:window-width="1366"
     inkscape:window-height="704"
     inkscape:window-x="0"
     inkscape:window-y="0"
     inkscape:window-maximized="1"
     inkscape:snap-global="false" />
  <metadata
     id="metadata5">
    <rdf:RDF>
      <cc:Work
         rdf:about="">
        <dc:format>image/svg+xml</dc:format>
        <dc:type
           rdf:resource="http://purl.org/dc/dcmitype/StillImage" />
        <dc:title></dc:title>
      </cc:Work>
    </rdf:RDF>
  </metadata>
  <g
     inkscape:label="Fork right 4"
     id="g1788"
     inkscape:groupmode="layer"
     style="opacity:0.25;filter:url(#filter1886)">
    <path
       sodipodi:nodetypes="cczcccccczccccccccc"
       d="M 30.097801,7.7874722 V 41.391954 c 0,0 -0.08324,1.715926 1.349375,3.148542 1.432614,1.432615 3.148541,1.349375 3.148541,1.349375 h 5.172604 V 59.94586 h 4.497917 V 45.889871 h 5.172603 c 0,0 1.7201,0.07907 3.148542,-1.349375 1.428442,-1.428438 1.349375,-3.148542 1.349375,-3.148542 V 7.7874722 H 49.438841 V 41.391954 H 44.266238 39.768321 34.595716 V 7.7874722 Z"
       style="opacity:0.999;fill:#e9281e;fill-opacity:1;stroke-width:3.98504;stroke-linejoin:round;paint-order:stroke fill markers;filter:url(#filter1802)"
       id="path1786"
       transform="matrix(0.82992035,0,0,0.82993285,4.3405144,5.7596057)" />
  </g>
  <g
     style="opacity:0.25;filter:url(#filter1890)"
     inkscape:groupmode="layer"
     id="g1820"
     inkscape:label="Fork left 4">
    <path
       transform="matrix(0.82992035,0,0,0.82993285,-6.3490738,5.7596057)"
       id="path1818"
       style="opacity:0.999;fill:#e9281e;fill-opacity:1;stroke-width:3.98504;stroke-linejoin:round;paint-order:stroke fill markers;filter:url(#filter1802)"
       d="M 30.097801,7.7874722 V 41.391954 c 0,0 -0.08324,1.715926 1.349375,3.148542 1.432614,1.432615 3.148541,1.349375 3.148541,1.349375 h 5.172604 V 59.94586 h 4.497917 V 45.889871 h 5.172603 c 0,0 1.7201,0.07907 3.148542,-1.349375 1.428442,-1.428438 1.349375,-3.148542 1.349375,-3.148542 V 7.7874722 H 49.438841 V 41.391954 H 44.266238 39.768321 34.595716 V 7.7874722 Z"
       sodipodi:nodetypes="cczcccccczccccccccc" />
  </g>
  <g
     style="opacity:0.35;filter:url(#filter1878)"
     inkscape:groupmode="layer"
     id="g1784"
     inkscape:label="Fork right 3">
    <path
       transform="matrix(0.85120334,0,0,0.85121452,2.1100653,5.0388675)"
       id="path1782"
       style="opacity:0.999;fill:#e91e36;fill-opacity:1;stroke-width:3.8854;stroke-linejoin:round;paint-order:stroke fill markers;filter:url(#filter1754)"
       d="M 30.097801,7.7874722 V 41.391954 c 0,0 -0.08324,1.715926 1.349375,3.148542 1.432614,1.432615 3.148541,1.349375 3.148541,1.349375 h 5.172604 V 59.94586 h 4.497917 V 45.889871 h 5.172603 c 0,0 1.7201,0.07907 3.148542,-1.349375 1.428442,-1.428438 1.349375,-3.148542 1.349375,-3.148542 V 7.7874722 H 49.438841 V 41.391954 H 44.266238 39.768321 34.595716 V 7.7874722 Z"
       sodipodi:nodetypes="cczcccccczccccccccc" />
  </g>
  <g
     inkscape:label="Fork left 3"
     id="g1764"
     inkscape:groupmode="layer"
     style="opacity:0.35;filter:url(#filter1882)">
    <path
       sodipodi:nodetypes="cczcccccczccccccccc"
       d="M 30.097801,7.7874722 V 41.391954 c 0,0 -0.08324,1.715926 1.349375,3.148542 1.432614,1.432615 3.148541,1.349375 3.148541,1.349375 h 5.172604 V 59.94586 h 4.497917 V 45.889871 h 5.172603 c 0,0 1.7201,0.07907 3.148542,-1.349375 1.428442,-1.428438 1.349375,-3.148542 1.349375,-3.148542 V 7.7874722 H 49.438841 V 41.391954 H 44.266238 39.768321 34.595716 V 7.7874722 Z"
       style="opacity:0.999;fill:#e9d11e;fill-opacity:1;stroke-width:3.8854;stroke-linejoin:round;paint-order:stroke fill markers;filter:url(#filter1754)"
       id="path1762"
       transform="matrix(0.85120334,0,0,0.85121452,-5.9071272,5.0388675)" />
  </g>
  <g
     inkscape:label="Fork right 2"
     id="g1748"
     inkscape:groupmode="layer"
     style="opacity:0.45;filter:url(#filter1866)">
    <path
       sodipodi:nodetypes="cczcccccczccccccccc"
       d="M 30.097801,7.7874722 V 41.391954 c 0,0 -0.08324,1.715926 1.349375,3.148542 1.432614,1.432615 3.148541,1.349375 3.148541,1.349375 h 5.172604 V 59.94586 h 4.497917 V 45.889871 h 5.172603 c 0,0 1.7201,0.07907 3.148542,-1.349375 1.428442,-1.428438 1.349375,-3.148542 1.349375,-3.148542 V 7.7874722 H 49.438841 V 41.391954 H 44.266238 39.768321 34.595716 V 7.7874722 Z"
       style="opacity:0.999;fill:#e91edf;fill-opacity:1;stroke-width:3.78826;stroke-linejoin:round;paint-order:stroke fill markers;filter:url(#filter1754)"
       id="path1746"
       transform="matrix(0.87303214,0,0,0.87304192,-0.14331978,4.2996462)" />
  </g>
  <g
     style="opacity:0.45;filter:url(#filter1870)"
     inkscape:groupmode="layer"
     id="g1760"
     inkscape:label="Fork left 2">
    <path
       transform="matrix(0.87303214,0,0,0.87304192,-5.4881135,4.2996462)"
       id="path1758"
       style="opacity:0.999;fill:#58e91e;fill-opacity:1;stroke-width:3.78826;stroke-linejoin:round;paint-order:stroke fill markers;filter:url(#filter1754)"
       d="M 30.097801,7.7874722 V 41.391954 c 0,0 -0.08324,1.715926 1.349375,3.148542 1.432614,1.432615 3.148541,1.349375 3.148541,1.349375 h 5.172604 V 59.94586 h 4.497917 V 45.889871 h 5.172603 c 0,0 1.7201,0.07907 3.148542,-1.349375 1.428442,-1.428438 1.349375,-3.148542 1.349375,-3.148542 V 7.7874722 H 49.438841 V 41.391954 H 44.266238 39.768321 34.595716 V 7.7874722 Z"
       sodipodi:nodetypes="cczcccccczccccccccc" />
  </g>
  <g
     inkscape:groupmode="layer"
     id="layer2"
     inkscape:label="Fork right 1"
     style="opacity:0.65;filter:url(#filter1854)">
    <path
       id="path1651-6"
       style="fill:#4a1ee9;fill-opacity:1;stroke-width:3.70296;stroke-linejoin:round;paint-order:stroke fill markers;filter:url(#filter1683-3)"
       d="M 30.095202,7.7874722 V 41.391954 c 0,0 -0.08324,1.715926 1.349375,3.148542 1.432614,1.432615 3.148541,1.349375 3.148541,1.349375 h 5.172604 V 59.94586 h 4.497917 V 45.889871 h 5.172603 c 0,0 1.7201,0.07907 3.148542,-1.349375 1.428442,-1.428438 1.349375,-3.148542 1.349375,-3.148542 V 7.7874722 H 49.436242 V 41.391954 H 44.263639 39.765722 34.593117 V 7.7874722 Z"
       sodipodi:nodetypes="cczcccccczccccccccc"
       transform="matrix(0.89315553,0,0,0.89314008,-2.3227269,3.6189879)" />
  </g>
  <g
     id="g1653"
     inkscape:groupmode="layer"
     inkscape:label="Fork left 1"
     style="filter:url(#filter1862);opacity:0.65">
    <path
       sodipodi:nodetypes="cczcccccczccccccccc"
       d="M 13.799293,7.7874718 V 41.391954 c 0,0 -0.08324,1.715926 1.349375,3.148542 1.432615,1.432615 3.148542,1.349375 3.148542,1.349375 h 5.172604 V 59.94586 h 4.497917 V 45.889871 h 5.172603 c 0,0 1.7201,0.07907 3.148542,-1.349375 1.428442,-1.428438 1.349375,-3.148542 1.349375,-3.148542 V 7.7874718 H 33.140334 V 41.391954 H 27.967731 23.469814 18.297209 V 7.7874718 Z"
       style="fill:#1ee98e;fill-opacity:1;stroke-width:3.703;stroke-linejoin:round;paint-order:stroke fill markers;filter:url(#filter1683)"
       id="path1651"
       transform="matrix(0.89313316,0,0,0.89314008,9.5602319,3.618988)" />
  </g>
  <g
     inkscape:label="Foreground fork"
     inkscape:groupmode="layer"
     id="layer1"
     style="opacity:0.998;">
    <path
       id="rect1402"
       style="fill:#1e9be9;fill-opacity:1;stroke-width:3.30729;stroke-linejoin:round;paint-order:stroke fill markers"
       d="m 22.976072,10.0385 v 30.703909 c 0,0 -0.07606,1.567816 1.232903,2.876776 1.308959,1.308959 2.876776,1.232903 2.876776,1.232903 h 4.726129 v 12.842746 h 4.10968 V 44.852088 h 4.726129 c 0,0 1.57163,0.07224 2.876776,-1.232903 1.305146,-1.305143 1.232903,-2.876776 1.232903,-2.876776 V 10.0385 H 40.647689 V 40.742409 H 35.92156 31.81188 27.08575 V 10.0385 Z"
       sodipodi:nodetypes="cczcccccczccccccccc" />
  </g>
</svg>
